<?xml version="1.0" encoding="utf-8"?>
<!-- Generator: Adobe Illustrator 21.0.0, SVG Export Plug-In . SVG Version: 6.00 Build 0)  -->
<!DOCTYPE svg PUBLIC "-//W3C//DTD SVG 1.1//EN" "http://www.w3.org/Graphics/SVG/1.1/DTD/svg11.dtd">
<svg version="1.1" id="Layer_1" xmlns="http://www.w3.org/2000/svg" xmlns:xlink="http://www.w3.org/1999/xlink" x="0px" y="0px"
	 viewBox="0 0 205 240" style="enable-background:new 0 0 205 240;" xml:space="preserve">
<style type="text/css">
	.st0{fill:#FFFFFF;}
</style>
<g>
	<path class="st0" d="M5.2,0H6c3.2,0.7,4.7,2.3,4.7,4.7v20.9c4.1-3.9,9.7-5.9,17-5.9c7,0,13.4,2.7,19.1,8C52.2,33.4,55,39.9,55,47
		c0,10.2-4.8,18.3-14.5,24.1c-4.2,2.1-8.3,3.2-12.2,3.2h-1.5c-7.4,0-14.2-3.4-20.5-10.3c-3.9-5.2-5.8-11.3-5.8-18.3v-41
		C0.4,2.3,2,0.7,5.2,0z M10.7,46.5v0.9c0,7,3.7,12.3,11.1,15.7c1.9,0.6,3.7,0.8,5.3,0.8h1.1c6.8,0,12-3.7,15.5-11.1
		c0.6-2.2,0.8-3.9,0.8-5.1v-1.1c0-7-3.8-12.2-11.3-15.7c-2.3-0.6-4.1-0.8-5.3-0.8h-0.7c-6.8,0-12,3.6-15.5,10.9
		C11.1,43,10.7,44.8,10.7,46.5z"/>
	<path class="st0" d="M117.3,68.6c-4.1,3.8-9.4,5.7-16,5.7h-1.4c-9.2,0-16.8-4.6-22.9-13.7c-2.2-4.4-3.3-8.9-3.3-13.4
		c0-10,4.9-18,14.7-23.9c4.2-2,8.3-2.9,12.2-2.9c10.2,0,18.3,5,24.2,14.9c1.8,4.1,2.7,8.3,2.7,12.6v21.6c0,2.7-1.6,4.3-4.9,4.8h-0.3
		c-2.3,0-3.9-1.3-5-4v-0.5L117.3,68.6z M83.8,47v0.5c0,6.8,3.4,11.9,10.3,15.3c2.1,0.8,4,1.2,5.7,1.2h1.4c5.6,0,10.3-2.8,14-8.5
		c1.3-2.7,2-5.2,2-7.6v-0.7c0-6.5-3.2-11.6-9.7-15c-2.2-1-4.5-1.5-7-1.5h-0.2c-6.9,0-12,3.6-15.5,10.8C84.1,43.6,83.8,45.4,83.8,47z
		"/>
	<path class="st0" d="M177.7,20.6c6.9,0,13.2,2.6,18.8,7.9c5.3,5.6,8,11.9,8,19c0,10.1-4.7,18-14.2,23.7c-4.2,2.1-8.2,3.1-12,3.1
		h-1.5c-7.2,0-14-3.4-20.2-10.2c-3.8-5.4-5.7-10.9-5.7-16.7c0-8.7,3.9-16,11.6-21.9C167.3,22.3,172.4,20.6,177.7,20.6z M161.3,46.9
		v0.9c0,6.2,3,11,9,14.4c2.1,1.1,4.4,1.6,6.9,1.6h1.1c6.4,0,11.3-3.3,14.7-10c0.8-2.1,1.1-4.1,1.1-6.1v-0.9c0-5.1-2.4-9.5-7.1-13
		c-2.8-1.9-5.9-2.8-9.5-2.8c-7,0-12.1,3.7-15.4,11.1C161.6,43.8,161.3,45.4,161.3,46.9z"/>
	<path class="st0" d="M5.2,86.7H6c3.2,0.7,4.7,2.3,4.7,4.7v20.9c4.1-3.9,9.7-5.9,17-5.9c7,0,13.4,2.7,19.1,8
		c5.4,5.7,8.2,12.1,8.2,19.3c0,10.2-4.8,18.3-14.5,24.1c-4.2,2.1-8.3,3.2-12.2,3.2h-1.5c-7.4,0-14.2-3.4-20.5-10.3
		c-3.9-5.2-5.8-11.3-5.8-18.3v-41C0.4,89,2,87.4,5.2,86.7z M10.7,133.1v0.9c0,7,3.7,12.3,11.1,15.7c1.9,0.6,3.7,0.8,5.3,0.8h1.1
		c6.8,0,12-3.7,15.5-11.1c0.6-2.2,0.8-3.9,0.8-5.1v-1.1c0-7-3.8-12.2-11.3-15.7c-2.3-0.6-4.1-0.8-5.3-0.8h-0.7
		c-6.8,0-12,3.6-15.5,10.9C11.1,129.7,10.7,131.5,10.7,133.1z"/>
	<path class="st0" d="M117.3,155.3c-4.1,3.8-9.4,5.7-16,5.7h-1.4c-9.2,0-16.8-4.6-22.9-13.7c-2.2-4.4-3.3-8.9-3.3-13.4
		c0-10,4.9-18,14.7-23.9c4.2-2,8.3-2.9,12.2-2.9c10.2,0,18.3,5,24.2,14.9c1.8,4.1,2.7,8.3,2.7,12.6v21.6c0,2.7-1.6,4.3-4.9,4.8h-0.3
		c-2.3,0-3.9-1.3-5-4v-0.5L117.3,155.3z M83.8,133.6v0.5c0,6.8,3.4,11.9,10.3,15.3c2.1,0.8,4,1.2,5.7,1.2h1.4c5.6,0,10.3-2.8,14-8.5
		c1.3-2.7,2-5.2,2-7.6v-0.7c0-6.5-3.2-11.6-9.7-15c-2.2-1-4.5-1.5-7-1.5h-0.2c-6.9,0-12,3.6-15.5,10.8
		C84.1,130.2,83.8,132.1,83.8,133.6z"/>
	<path class="st0" d="M154.8,86.7h0.8c3.2,0.7,4.7,2.3,4.7,4.7v20.9c4.1-3.9,9.7-5.9,17-5.9c7,0,13.4,2.7,19.1,8
		c5.4,5.7,8.2,12.1,8.2,19.3c0,10.2-4.8,18.3-14.5,24.1c-4.2,2.1-8.3,3.2-12.2,3.2h-1.5c-7.4,0-14.2-3.4-20.5-10.3
		c-3.9-5.2-5.8-11.3-5.8-18.3v-41C150,89,151.6,87.4,154.8,86.7z M160.3,133.1v0.9c0,7,3.7,12.3,11.1,15.7c1.9,0.6,3.7,0.8,5.3,0.8
		h1.1c6.8,0,12-3.7,15.5-11.1c0.6-2.2,0.8-3.9,0.8-5.1v-1.1c0-7-3.8-12.2-11.3-15.7c-2.3-0.6-4.1-0.8-5.3-0.8h-0.7
		c-6.8,0-12,3.6-15.5,10.9C160.7,129.7,160.3,131.5,160.3,133.1z"/>
	<path class="st0" d="M27.3,186.3c6.9,0,13.2,2.6,18.8,7.9c5.3,5.6,8,11.9,8,19c0,10.1-4.7,18-14.2,23.7c-4.2,2.1-8.2,3.1-12,3.1
		h-1.5c-7.2,0-14-3.4-20.2-10.2c-3.8-5.4-5.7-10.9-5.7-16.7c0-8.7,3.9-16,11.6-21.9C16.9,188,22,186.3,27.3,186.3z"/>
	<path class="st0" d="M100.5,186.3c6.9,0,13.2,2.6,18.8,7.9c5.3,5.6,8,11.9,8,19c0,10.1-4.7,18-14.2,23.7c-4.2,2.1-8.2,3.1-12,3.1
		h-1.5c-7.2,0-14-3.4-20.2-10.2c-3.8-5.4-5.7-10.9-5.7-16.7c0-8.7,3.9-16,11.6-21.9C90.1,188,95.2,186.3,100.5,186.3z"/>
	<path class="st0" d="M177.7,186.3c6.9,0,13.2,2.6,18.8,7.9c5.3,5.6,8,11.9,8,19c0,10.1-4.7,18-14.2,23.7c-4.2,2.1-8.2,3.1-12,3.1
		h-1.5c-7.2,0-14-3.4-20.2-10.2c-3.8-5.4-5.7-10.9-5.7-16.7c0-8.7,3.9-16,11.6-21.9C167.3,188,172.4,186.3,177.7,186.3z"/>
</g>
</svg>
